<svg xmlns="http://www.w3.org/2000/svg" width="129" height="179" fill="none" viewBox="0 0 129 179"><path fill="#E5E5E5" d="M112.776 0H17.7555C4.71279 0 0.399994 9.84291 0.399994 16.0339V166.912C0.399994 173.973 4.60845 176.546 6.73006 177.381C8.88646 178.251 14.66 178.981 18.1729 174.912C63.0051 122.949 63.7702 122.08 63.7702 122.08C64.8484 120.897 64.9528 121.002 66.1353 121.002H95.1423C107.35 121.002 109.263 112.237 110.55 107.194L127.453 22.6769C130.41 7.92997 126.688 0 112.776 0ZM107.107 25.6681L103.142 46.4321C102.725 48.6928 99.8377 51.0231 97.2639 51.0231H60.2574C56.0837 51.0231 53.0926 53.9099 53.0926 58.0836V62.6051C53.0926 66.7787 56.0837 69.7699 60.2574 69.7699H91.6991C94.5858 69.7699 97.4726 72.9697 96.8466 76.0999C96.2205 79.1954 93.1946 94.8119 92.8816 96.5509C92.5686 98.2552 90.5165 101.246 87.0037 101.246H61.4399C56.7446 101.246 55.4577 101.872 52.2231 105.629C52.2231 105.629 49.1276 109.594 21.0944 143.296C20.7814 143.609 20.4684 143.505 20.4684 143.192V25.3551C20.4684 22.6769 22.8335 19.5815 26.242 19.5815H102.411C105.263 19.5815 107.837 22.2596 107.107 25.6681Z"/></svg>