<svg xmlns="http://www.w3.org/2000/svg" width="24" height="24" fill="none" viewBox="0 0 24 24"><path fill="red" d="M12 0C5.37097 0 0 5.37097 0 12C0 18.629 5.37097 24 12 24C18.629 24 24 18.629 24 12C24 5.37097 18.629 0 12 0ZM12 21.6774C6.6629 21.6774 2.32258 17.3371 2.32258 12C2.32258 6.6629 6.6629 2.32258 12 2.32258C17.3371 2.32258 21.6774 6.6629 21.6774 12C21.6774 17.3371 17.3371 21.6774 12 21.6774ZM8.12903 11.2258C8.98548 11.2258 9.67742 10.5339 9.67742 9.67742C9.67742 8.82097 8.98548 8.12903 8.12903 8.12903C7.27258 8.12903 6.58064 8.82097 6.58064 9.67742C6.58064 10.5339 7.27258 11.2258 8.12903 11.2258ZM15.871 8.12903C15.0145 8.12903 14.3226 8.82097 14.3226 9.67742C14.3226 10.5339 15.0145 11.2258 15.871 11.2258C16.7274 11.2258 17.4194 10.5339 17.4194 9.67742C17.4194 8.82097 16.7274 8.12903 15.871 8.12903ZM12 14.3226C10.0548 14.3226 8.22581 15.179 6.97742 16.6742C6.56613 17.1677 6.63387 17.8984 7.12742 18.3097C7.62097 18.7161 8.35161 18.6532 8.7629 18.1597C9.56613 17.1968 10.7468 16.6403 12 16.6403C13.2532 16.6403 14.4339 17.1919 15.2371 18.1597C15.629 18.629 16.3548 18.7355 16.8726 18.3097C17.3661 17.8984 17.429 17.1677 17.0226 16.6742C15.7742 15.179 13.9452 14.3226 12 14.3226Z"/></svg>