<svg width="24" height="24" viewBox="0 0 24 24" fill="none" xmlns="http://www.w3.org/2000/svg">
    <path d="M12 0C5.37097 0 0 5.37097 0 12C0 18.629 5.37097 24 12 24C18.629 24 24 18.629 24 12C24 5.37097 18.629 0 12 0ZM12 21.6774C6.6629 21.6774 2.32258 17.3371 2.32258 12C2.32258 6.6629 6.6629 2.32258 12 2.32258C17.3371 2.32258 21.6774 6.6629 21.6774 12C21.6774 17.3371 17.3371 21.6774 12 21.6774ZM8.12903 11.2258C8.98548 11.2258 9.67742 10.5339 9.67742 9.67742C9.67742 8.82097 8.98548 8.12903 8.12903 8.12903C7.27258 8.12903 6.58064 8.82097 6.58064 9.67742C6.58064 10.5339 7.27258 11.2258 8.12903 11.2258ZM15.871 11.2258C16.7274 11.2258 17.4194 10.5339 17.4194 9.67742C17.4194 8.82097 16.7274 8.12903 15.871 8.12903C15.0145 8.12903 14.3226 8.82097 14.3226 9.67742C14.3226 10.5339 15.0145 11.2258 15.871 11.2258ZM16.0645 14.7387C15.0581 15.9484 13.5726 16.6452 12 16.6452C10.4274 16.6452 8.94194 15.9532 7.93548 14.7387C7.52419 14.2452 6.78871 14.1823 6.3 14.5887C5.80645 15 5.74355 15.7306 6.15 16.2242C7.60161 17.9661 9.73548 18.9629 12 18.9629C14.2645 18.9629 16.3984 17.9661 17.85 16.2242C18.2613 15.7306 18.1935 15 17.7 14.5887C17.2113 14.1823 16.4758 14.2452 16.0645 14.7387V14.7387Z" fill="white"/>
</svg>
