<svg xmlns="http://www.w3.org/2000/svg" width="933.333" height="933.333" preserveAspectRatio="xMidYMid meet" version="1.0" viewBox="0 0 700 700"><metadata>Created by potrace 1.11, written by Peter Selinger 2001-2013</metadata><g fill="#000" stroke="none"><path d="M32 6462 l-32 -3 0 -2911 c0 -1601 2 -2909 4 -2907 2 2 21 42 41 89 21 47 52 118 71 158 19 41 34 76 34 78 0 2 14 34 31 71 17 38 76 169 131 293 55 124 108 244 119 268 26 57 477 1070 522 1172 9 19 31 69 50 110 19 41 38 86 42 100 4 14 11 30 15 35 4 6 24 48 45 95 50 114 351 792 380 855 13 28 186 417 385 865 199 448 370 833 380 855 25 56 109 244 125 280 7 17 29 65 49 108 20 44 36 80 36 82 0 2 16 38 35 79 19 42 35 78 35 81 0 2 14 34 31 70 18 36 29 68 26 71 -6 6 -2495 12 -2555 6z" transform="translate(0.000000,700.000000) scale(0.100000,-0.100000)"/><path d="M4418 6459 c-9 -6 31 -105 131 -322 17 -37 31 -69 31 -72 0 -2 16 -39 36 -82 20 -43 88 -195 151 -338 64 -143 126 -285 140 -315 14 -30 52 -116 85 -190 33 -74 68 -153 78 -175 10 -22 55 -123 100 -225 45 -102 92 -207 105 -235 13 -27 74 -165 135 -305 62 -140 130 -292 152 -338 21 -46 38 -85 38 -87 0 -2 13 -32 29 -67 16 -35 140 -313 276 -618 135 -305 255 -575 267 -600 11 -25 36 -81 55 -125 20 -44 47 -105 60 -135 14 -30 43 -95 65 -145 22 -49 48 -108 58 -130 10 -22 91 -204 180 -405 89 -201 170 -383 180 -405 10 -22 48 -107 84 -190 37 -82 84 -188 104 -233 l37 -84 3 2908 c1 1599 0 2909 -3 2912 -6 7 -2566 8 -2577 1z" transform="translate(0.000000,700.000000) scale(0.100000,-0.100000)"/><path d="M3370 4018 c-68 -150 -136 -300 -151 -333 -46 -102 -125 -277 -149 -330 -12 -27 -34 -75 -47 -105 -26 -56 -63 -137 -103 -225 -12 -27 -35 -77 -50 -110 -15 -33 -91 -202 -169 -375 -78 -173 -155 -342 -170 -375 -16 -33 -35 -76 -44 -95 -8 -19 -36 -79 -61 -134 -26 -54 -49 -108 -52 -120 l-5 -21 591 0 c386 0 594 -3 599 -10 4 -5 111 -268 236 -582 l229 -573 554 0 c439 0 553 3 549 13 -4 9 -334 751 -437 982 -9 22 -34 78 -55 125 -34 78 -54 121 -105 235 -10 22 -127 285 -260 585 -133 300 -251 565 -262 590 -11 25 -37 83 -58 130 -21 47 -47 106 -59 133 -50 112 -67 150 -143 321 -43 100 -85 195 -93 211 -7 17 -30 66 -50 110 -20 44 -50 113 -67 153 -16 39 -33 72 -37 72 -4 0 -63 -123 -131 -272z" transform="translate(0.000000,700.000000) scale(0.100000,-0.100000)"/></g></svg>